<svg xmlns="http://www.w3.org/2000/svg" xmlns:xlink="http://www.w3.org/1999/xlink" width="500" zoomAndPan="magnify" viewBox="0 0 375 374.999991" height="500" preserveAspectRatio="xMidYMid meet" version="1.0"><path fill="#a6a6a6" d="M 202.703125 197.597656 C 207.585938 194.878906 211.429688 190.613281 213.628906 185.476562 C 215.828125 180.335938 216.257812 174.613281 214.855469 169.203125 C 213.453125 163.792969 210.289062 159 205.871094 155.582031 C 201.449219 152.160156 196.015625 150.304688 190.429688 150.304688 L 190.039062 150.304688 C 189.433594 150.304688 188.855469 150.460938 188.25 150.503906 L 188.25 251.164062 C 188.855469 251.164062 189.433594 251.164062 190.054688 251.164062 C 199.054688 251.164062 207.964844 250.789062 216.792969 250.039062 Z M 202.703125 197.597656 " fill-opacity="1" fill-rule="nonzero"/><path fill="#737373" d="M 188.234375 251.207031 L 188.234375 150.546875 C 182.925781 150.988281 177.894531 153.101562 173.863281 156.585938 C 169.835938 160.074219 167.019531 164.75 165.820312 169.941406 C 164.625 175.132812 165.105469 180.570312 167.203125 185.46875 C 169.296875 190.367188 172.894531 194.472656 177.476562 197.191406 L 163.285156 250.152344 C 171.503906 250.847656 179.839844 251.164062 188.234375 251.207031 Z M 188.234375 251.207031 " fill-opacity="1" fill-rule="nonzero"/><path fill="#a6a6a6" d="M 188.234375 352.222656 L 318.042969 261.417969 L 318.042969 26.925781 L 295.167969 11.074219 L 188.234375 86.25 L 188.234375 121.457031 L 289.183594 50.824219 L 289.195312 50.824219 L 289.195312 246.402344 L 289.183594 246.386719 L 188.234375 317.019531 Z M 188.234375 352.222656 " fill-opacity="1" fill-rule="nonzero"/><path fill="#737373" d="M 188.234375 121.457031 L 188.234375 86.25 L 81.289062 11.074219 L 58.429688 26.914062 L 58.429688 261.417969 L 188.234375 352.222656 L 188.234375 317.019531 L 87.273438 246.402344 L 87.273438 50.824219 Z M 188.234375 121.457031 " fill-opacity="1" fill-rule="nonzero"/></svg>