<svg xmlns="http://www.w3.org/2000/svg" xmlns:xlink="http://www.w3.org/1999/xlink" width="500" zoomAndPan="magnify" viewBox="0 0 375 374.999991" height="500" preserveAspectRatio="xMidYMid meet" version="1.0"><path fill="#737373" d="M 248.652344 54.085938 L 248.652344 140.625 L 279.230469 171.203125 L 279.230469 84.664062 Z M 126.347656 104.710938 L 95.769531 117.402344 L 95.769531 160.671875 L 126.347656 191.25 L 126.347656 147.980469 L 248.652344 270.144531 L 279.230469 257.597656 Z M 95.769531 290.335938 L 126.347656 320.914062 L 126.347656 277.644531 L 95.769531 247.066406 Z M 95.769531 290.335938 " fill-opacity="1" fill-rule="nonzero"/><path fill="#d9d9d9" d="M 126.347656 191.25 L 95.769531 160.671875 L 65.335938 130.097656 L 34.761719 142.789062 L 34.761719 315.578125 L 65.335938 346.152344 L 65.335938 173.367188 L 187.5 295.527344 L 187.5 252.257812 Z M 309.664062 28.847656 L 309.664062 201.632812 L 187.5 79.472656 L 187.5 122.742188 L 309.664062 244.902344 L 340.242188 232.210938 L 340.242188 59.421875 Z M 309.664062 28.847656 " fill-opacity="1" fill-rule="nonzero"/></svg>